<svg width="512" height="512" viewBox="0 0 512 512" fill="none" xmlns="http://www.w3.org/2000/svg">
  <rect width="512" height="512" rx="128" fill="#3B82F6"/>
  <rect x="64" y="64" width="384" height="384" rx="96" fill="#1E40AF"/>
  
  <!-- Music Note -->
  <g transform="translate(128, 128)">
    <!-- Note Head -->
    <ellipse cx="128" cy="128" rx="48" ry="48" fill="white"/>
    <!-- Note Stem -->
    <rect x="176" y="80" width="16" height="96" fill="white"/>
    <!-- Flag -->
    <path d="M 192 80 Q 240 60 240 100 Q 240 140 192 120" stroke="white" stroke-width="12" fill="none" stroke-linecap="round"/>
  </g>
  
  <!-- Calendar Icon -->
  <g transform="translate(256, 256)">
    <rect x="32" y="48" width="128" height="16" rx="8" fill="white"/>
    <rect x="32" y="80" width="128" height="96" rx="8" fill="white" fill-opacity="0.2"/>
    <rect x="48" y="96" width="16" height="16" rx="4" fill="white"/>
    <rect x="80" y="96" width="16" height="16" rx="4" fill="white"/>
    <rect x="112" y="96" width="16" height="16" rx="4" fill="white"/>
    <rect x="48" y="128" width="16" height="16" rx="4" fill="white"/>
    <rect x="80" y="128" width="16" height="16" rx="4" fill="white"/>
    <rect x="112" y="128" width="16" height="16" rx="4" fill="white"/>
  </g>
</svg>

